/vscmnt/brussel_pixiu_data/_data_brussel/112/vsc11236/PredSimResults/SUBJ11_Dhondt2024_3seg/weighted/worker_01.mot
version=1
nRows=4
nColumns=124
inDegrees=yes
endheader
                time	         pelvis_tilt	         pelvis_list	     pelvis_rotation	           pelvis_tx	           pelvis_ty	           pelvis_tz	       hip_flexion_r	     hip_adduction_r	      hip_rotation_r	        knee_angle_r	       ankle_angle_r	    subtalar_angle_r	         mtp_angle_r	       hip_flexion_l	     hip_adduction_l	      hip_rotation_l	        knee_angle_l	       ankle_angle_l	    subtalar_angle_l	         mtp_angle_l	    lumbar_extension	      lumbar_bending	     lumbar_rotation	          arm_flex_r	           arm_add_r	           arm_rot_r	        elbow_flex_r	          arm_flex_l	           arm_add_l	           arm_rot_l	        elbow_flex_l	glut_med1_r/activation	glut_med2_r/activation	glut_med3_r/activation	glut_min1_r/activation	glut_min2_r/activation	glut_min3_r/activation	semimem_r/activation	semiten_r/activation	bifemlh_r/activation	bifemsh_r/activation	    sar_r/activation	add_long_r/activation	add_brev_r/activation	add_mag1_r/activation	add_mag2_r/activation	add_mag3_r/activation	    tfl_r/activation	   pect_r/activation	   grac_r/activation	glut_max1_r/activation	glut_max2_r/activation	glut_max3_r/activation	iliacus_r/activation	  psoas_r/activation	quad_fem_r/activation	    gem_r/activation	   peri_r/activation	rect_fem_r/activation	vas_med_r/activation	vas_int_r/activation	vas_lat_r/activation	med_gas_r/activation	lat_gas_r/activation	 soleus_r/activation	tib_post_r/activation	flex_dig_r/activation	flex_hal_r/activation	tib_ant_r/activation	per_brev_r/activation	per_long_r/activation	per_tert_r/activation	ext_dig_r/activation	ext_hal_r/activation	glut_med1_l/activation	glut_med2_l/activation	glut_med3_l/activation	glut_min1_l/activation	glut_min2_l/activation	glut_min3_l/activation	semimem_l/activation	semiten_l/activation	bifemlh_l/activation	bifemsh_l/activation	    sar_l/activation	add_long_l/activation	add_brev_l/activation	add_mag1_l/activation	add_mag2_l/activation	add_mag3_l/activation	    tfl_l/activation	   pect_l/activation	   grac_l/activation	glut_max1_l/activation	glut_max2_l/activation	glut_max3_l/activation	iliacus_l/activation	  psoas_l/activation	quad_fem_l/activation	    gem_l/activation	   peri_l/activation	rect_fem_l/activation	vas_med_l/activation	vas_int_l/activation	vas_lat_l/activation	med_gas_l/activation	lat_gas_l/activation	 soleus_l/activation	tib_post_l/activation	flex_dig_l/activation	flex_hal_l/activation	tib_ant_l/activation	per_brev_l/activation	per_long_l/activation	per_tert_l/activation	ext_dig_l/activation	ext_hal_l/activation	 ercspn_r/activation	 ercspn_l/activation	 intobl_r/activation	 intobl_l/activation	 extobl_r/activation	 extobl_l/activation	
          1.81831796	         -2.92960126	          0.87100418	         -2.48918817	          2.00014976	          0.92010719	          0.00247888	        -15.78950243	          0.93176062	          8.86443532	         -8.18411396	         10.36129655	          7.35497975	         14.43231044	         29.26673080	          2.36371910	          0.69210275	        -12.52563169	          5.84123579	         -2.50237382	          0.15793886	         -5.49391237	          0.50553352	          1.29660650	          8.14273828	        -13.47225623	         19.37463899	         51.32883093	        -12.86457389	        -13.45061393	         15.03327903	         26.56078766	          0.20946064	          0.12862426	          0.07200751	          0.27061931	          0.25850919	          0.18337592	          0.01118244	          0.01000108	          0.01000096	          0.05466188	          0.09355444	          0.01000014	          0.01000023	          0.01000039	          0.01000166	          0.01000158	          0.35559648	          0.01000068	          0.01000087	          0.01736759	          0.01200717	          0.01000379	          0.25185463	          0.41212747	          0.01000037	          0.01004864	          0.06251942	          0.24487700	          0.01000101	          0.01000102	          0.01000098	          0.37824953	          0.41487638	          0.33192399	          0.26704408	          0.30887840	          0.35627409	          0.01447640	          0.01000065	          0.03363820	          0.01201943	          0.01374882	          0.01536414	          0.01000514	          0.01001280	          0.01111131	          0.01000164	          0.01000182	          0.01000459	          0.10613588	          0.01960485	          0.03784218	          0.01587905	          0.01573494	          0.06802270	          0.10210683	          0.11615845	          0.10772143	          0.05825179	          0.01000131	          0.01292401	          0.03997018	          0.01202135	          0.01352805	          0.05649830	          0.02409781	          0.02188828	          0.05156798	          0.01000062	          0.01000031	          0.01000021	          0.02153468	          0.02173339	          0.01839083	          0.01000009	          0.01000025	          0.01000002	          0.01202035	          0.01202020	          0.01201963	          0.27882851	          0.13895772	          0.09636553	          0.10706171	          0.31389258	          0.04539563	          0.01000002	          0.01444877	          0.01000004	          0.03689855	          0.01000011	          0.08214747	
          1.83044008	         -2.93001532	          1.09585723	         -2.69490852	          2.01579983	          0.91967387	          0.00221066	        -15.89820160	          0.59568712	          8.63388113	         -9.63873349	          9.70193097	          8.00975571	         15.67696295	         28.59135188	          2.79988688	          0.79677792	        -11.81519584	          5.08745703	         -2.72426170	          0.18267600	         -5.37502704	          0.13532563	          1.38156770	          7.84678617	        -13.48803537	         19.36091806	         52.59433624	        -13.56369538	        -13.44971112	         14.79071449	         26.12709281	          0.17425644	          0.10700546	          0.05990470	          0.22513451	          0.21505985	          0.15255466	          0.01000302	          0.01000034	          0.01000026	          0.04547448	          0.07783071	          0.01000306	          0.01000059	          0.01000067	          0.01000215	          0.01000089	          0.29583078	          0.01012029	          0.01000917	          0.01445118	          0.01001835	          0.01000210	          0.22174525	          0.34817270	          0.01000482	          0.01003434	          0.05201137	          0.22028550	          0.01000063	          0.01000062	          0.01000051	          0.34512665	          0.37880173	          0.30960504	          0.25216291	          0.31146829	          0.34808600	          0.01204325	          0.01000083	          0.03516770	          0.01000018	          0.01143797	          0.01278182	          0.01202028	          0.01000256	          0.01000028	          0.01202037	          0.01202014	          0.01000337	          0.08829766	          0.01630987	          0.03148187	          0.01321022	          0.01309056	          0.06143378	          0.18818908	          0.09962619	          0.11136537	          0.04846156	          0.01000116	          0.02093162	          0.03325295	          0.01000117	          0.01125443	          0.05436894	          0.02004759	          0.01820943	          0.07600745	          0.14732535	          0.06257778	          0.01736721	          0.08710144	          0.08885120	          0.07333444	          0.01000028	          0.01000030	          0.01139332	          0.01000007	          0.01000034	          0.01000035	          0.34973714	          0.15498087	          0.09100347	          0.20182604	          0.35498012	          0.03776578	          0.01000010	          0.01202031	          0.01331914	          0.03069675	          0.01000020	          0.06834033	
          1.84256220	         -2.92717953	          1.32820262	         -2.88938374	          2.03175778	          0.91930639	          0.00193472	        -15.91396365	          0.25533113	          8.38070857	        -11.25481314	          8.87460837	          8.66076348	         16.99373126	         27.87011542	          3.20893185	          0.92640796	        -11.70046528	          4.04746831	         -2.92342609	          0.21256174	         -5.23821109	         -0.24768884	          1.45966899	          7.45933989	        -13.50665551	         19.33657333	         53.81097462	        -14.21056719	        -13.45519948	         14.72294923	         25.61567917	          0.14496787	          0.08902029	          0.04983610	          0.18729455	          0.17891321	          0.12691377	          0.01623117	          0.01202015	          0.01202042	          0.03783126	          0.06474935	          0.01202116	          0.01202148	          0.01202115	          0.01202182	          0.01202096	          0.24610844	          0.01706500	          0.01202137	          0.01202448	          0.01201251	          0.01202031	          0.18447489	          0.28965273	          0.01202037	          0.01202049	          0.04326983	          0.25989313	          0.01202105	          0.01202110	          0.01202104	          0.29795184	          0.33004252	          0.28147322	          0.23256011	          0.26212572	          0.31298984	          0.01001906	          0.01000032	          0.04937588	          0.01000019	          0.01000004	          0.01063355	          0.01000003	          0.01000018	          0.05040439	          0.01000016	          0.01000018	          0.01000033	          0.07345684	          0.03089809	          0.02619060	          0.01736867	          0.01444844	          0.05110846	          0.15655985	          0.17215973	          0.10370405	          0.04031643	          0.01000053	          0.01741770	          0.08596034	          0.01000925	          0.01818300	          0.04523092	          0.01667811	          0.01514892	          0.13864921	          0.12256332	          0.05205990	          0.01444823	          0.07246172	          0.07391739	          0.06100863	          0.01444889	          0.01444915	          0.01000003	          0.01485537	          0.01445152	          0.01445280	          0.29095436	          0.15795236	          0.10507374	          0.16790383	          0.32075724	          0.07882032	          0.01183895	          0.01000001	          0.01444925	          0.02553732	          0.01444901	          0.05685386	
          1.85468432	         -2.92241056	          1.57821467	         -3.06994842	          2.04790731	          0.91904102	          0.00167127	        -15.82921101	         -0.09713115	          8.09826453	        -13.01782192	          7.84849814	          9.28769000	         18.36790361	         27.13507344	          3.57041153	          1.09634047	        -11.98107235	          2.74141354	         -3.11369961	          0.20241522	         -5.09259262	         -0.65633098	          1.52942899	          6.99775368	        -13.52088349	         19.30214170	         54.96528422	        -14.77922625	        -13.47442364	         14.85657705	         25.01570377	          0.20096661	          0.07405802	          0.04145979	          0.27076335	          0.14884279	          0.10558251	          0.01356828	          0.01000036	          0.01000029	          0.03147271	          0.05386690	          0.01000083	          0.01000110	          0.01000085	          0.01000186	          0.01000102	          0.22020902	          0.01419828	          0.01000150	          0.01000541	          0.01000086	          0.01000080	          0.15347283	          0.28304564	          0.01000015	          0.01000068	          0.03599718	          0.21621110	          0.01000078	          0.01000081	          0.01000071	          0.24787280	          0.27456982	          0.23416387	          0.20318600	          0.21806869	          0.26038364	          0.01000004	          0.01114260	          0.06789926	          0.01000027	          0.01000009	          0.01000025	          0.20819384	          0.21097055	          0.27131900	          0.12615308	          0.03058106	          0.11338027	          0.06111045	          0.03484011	          0.04577295	          0.01444957	          0.01202072	          0.04251840	          0.13024582	          0.14322373	          0.08627416	          0.07744320	          0.01000185	          0.01449260	          0.07151268	          0.01000117	          0.01512759	          0.04474210	          0.01387495	          0.01260278	          0.11534557	          0.10196343	          0.08010698	          0.01201992	          0.09198452	          0.10056778	          0.07145545	          0.01202038	          0.01202062	          0.01202026	          0.01235855	          0.01202270	          0.01202375	          0.43226326	          0.17482593	          0.08741542	          0.41223835	          0.41805832	          0.19325057	          0.01678070	          0.02895990	          0.01202066	          0.02124523	          0.01202050	          0.04729800	
